<?xml version="1.0" encoding="utf-8"?>
<!-- Generator: Adobe Illustrator 27.5.0, SVG Export Plug-In . SVG Version: 6.00 Build 0)  -->
<svg version="1.1" xmlns="http://www.w3.org/2000/svg" xmlns:xlink="http://www.w3.org/1999/xlink" x="0px" y="0px"
	 viewBox="0 0 1160 772" style="enable-background:new 0 0 1160 772;" xml:space="preserve">
<g id="background">
	<rect style="fill:#FFFFFF;" width="1160" height="772"/>
</g>
<g id="Object">
	<g>
		<g>
			<path style="fill:#6491AD;" d="M89.833,328.68c1.119,13.994,1.333,27.853,1.333,41.979c0,20.749,0,41.614,0,62.422h198.79
				c0-24.971,0-49.474,0-74.123c0-7.782,1.418-19.324,1.443-29.74L89.833,328.68z"/>
			<path style="fill:#6D9DBF;" d="M290.648,309.356c-6.574-1.904-19.082-0.994-28.194-0.994c-17.916,0-35.832,0-53.749,0
				c-21.424,0-42.847-0.315-64.271-0.403c-10.852-0.045-21.704-0.035-32.556,0.105c-5.122,0.066-10.582-0.343-15.664,0.298
				c-3.979,0.502-9.083-0.432-12.872,0.754c0.203,6.384,0.645,12.759,1.324,19.11c0.425,3.978-0.199,10.188,4.181,11.942
				c3.577,1.433,9.826,0.354,13.722,0.354c10.989,0,21.979,0,32.968,0c28.839,0,57.678,0,86.518,0c21.677,0,43.354,0,65.031,0
				c2.284,0,4.591-0.004,6.861,0.003c1.468-8.311,1.87-16.929,2.662-25.357c0.131-1.391,0.244-2.877-0.421-4.106
				C295.093,309.04,292.478,309.886,290.648,309.356z"/>
			<path style="opacity:0.57;fill:#272525;" d="M217.184,316.926c-1.52,0.39-3.762,0.564-5.513,0.596
				c-6.809,0.125-13.621-0.219-20.43-0.224c-6.211-0.005-12.423-0.01-18.634-0.006c-5.079,0.003-9.756,0.86-10.075-1.959
				c-0.29-2.566,4.273-1.801,8.481-1.766c5.081,0.041,10.162-0.135,15.243-0.135c0.01,0,0.02,0,0.031,0
				c7.251,0,14.412-0.504,21.694-0.238c2.758,0.101,7.935,0.257,9.894,1.43C219.674,315.7,218.88,316.491,217.184,316.926z"/>
			<g style="opacity:0.86;">
				<path style="fill:#FFFFFF;" d="M159.747,367.609c0-0.158,0.277-0.278,0.436-0.436c2.299-0.436,3.211,0.436,3.489,0.595
					c0.435,0.595,0.435,0.872-0.278,6.264c-1.03,8.326-1.466,11.418-1.903,15.779c-0.278,2.339-0.436,4.361-0.436,4.361
					c-0.714,1.269-2.776,0.872-3.648,0.436c-0.594-0.278-0.753-0.436-1.903-4.242c-0.595-1.586-4.678-14.867-5.55-17.642
					c-0.436-1.308-1.031-3.053-0.872-3.647c0.199-0.753,0.872-1.031,1.467-0.872c1.466,0.159,1.902,0.436,2.497,1.467
					c0.99,1.427,4.519,13.439,4.519,13.281C157.725,382.952,159.588,367.887,159.747,367.609z"/>
				<path style="fill:#FFFFFF;" d="M170.333,368.006c0-0.158,0.277-0.476,0.436-0.634c0.476-0.476,0.476-0.476,1.586-0.317
					c1.585,0,2.776,0.674,4.123,1.903c4.718,4.282,5.63,10.427,5.55,13.598c-0.198,7.334-3.489,10.427-6.026,11.695
					c-2.973,1.229-5.511,0.475-6.937-0.317c-4.797-2.18-4.321-13.241-3.806-15.501c1.586-6.938,3.33-8.365,4.44-9.475
					C170.016,368.64,170.333,368.164,170.333,368.006z M175.051,373.873c-0.318-0.951-0.952-1.903-1.269-2.22
					c-0.318-0.476-0.476-0.634-0.635-0.634c-4.955,3.925-4.242,15.144-2.378,18.672c0.436,0.833,1.11,1.705,1.269,1.705
					c0.793,0.159,2.537-1.387,3.489-2.814C177.905,384.3,177.746,378.948,175.051,373.873z"/>
				<path style="fill:#FFFFFF;" d="M190.75,367.411c2.181-0.317,4.202-0.595,4.52-0.634c1.269-0.119,3.528,0,4.004,0.317
					c1.229,0.793,1.705,1.824,0.912,2.617c-0.476,0.476-0.317,0.476-2.934,0.476c-1.07,0-2.458,0-2.934,0.159
					c-0.912,0.159-0.912,0.159-0.912,2.022c0.317,5.867,0.912,13.757,1.546,17.008c0.476,2.775,0.635,4.163,0.476,4.638
					c-0.158,0.476-1.269,0.912-2.18,0.912c-0.912,0-2.023-0.436-2.498-1.229c-0.475-0.475-0.594-1.824-1.07-5.709
					c-0.635-5.867-0.912-11.774-0.912-15.937c-0.158-1.07-0.158-1.11-1.546-0.952c-2.617,0.317-3.846,0.198-4.638-0.595
					c-0.476-0.476-0.635-1.387,0-1.705C183.218,368.323,186.271,367.887,190.75,367.411z"/>
				<path style="fill:#FFFFFF;" d="M201.734,368.957c0.872-0.436,4.281-1.15,7.809-1.744c2.934-0.278,3.687-0.317,4.718,0.436
					c1.189,0.951,0.436,2.14,0.119,2.18c-4.084,0.436-8.96,1.19-8.96,1.19c-0.159,0-0.159,4.876-0.317,6.065
					c0,1.784,0,2.061,0.158,2.061c0.159,0.159,3.37-0.753,3.806-0.753c1.784,0,2.973,1.189,2.537,2.22
					c-0.277,0.595-3.092,1.467-5.907,2.062c-0.753,0.158-0.753,0.119-0.753,2.339c0.159,2.498,0.317,3.687,0.753,4.718
					c0.436,1.189,0.317,1.189,2.656-0.713c1.189-0.872,1.942-1.19,3.251-0.754c1.308,0.436,1.744,1.308,1.15,2.497
					c-0.436,0.872-2.062,2.379-3.093,2.815c-8.643,3.964-9.436-4.718-9.555-6.779c-0.317-4.876,0.872-15.462,1.031-16.056
					c0.159-0.159,0.159-0.436,0-0.595C200.98,369.869,201.298,369.235,201.734,368.957z"/>
			</g>
		</g>
		<path style="fill:#6E6659;" d="M89.013,469.42c-0.036,20.498-0.064,41.013,0.056,61.493c0.119,20.365,0.101,40.8,0.101,61.289
			c0,13.217,0.031,26.706,0.036,40.095c0.132-0.007,0.262-0.013,0.379-0.015c4.902-0.072,9.801-0.224,14.701-0.366
			c0.54-0.016,1.076-0.021,1.615-0.032c-0.023-2.095-0.042-4.09-0.044-5.872c-0.032-25.386-0.106-50.867-0.106-76.353
			c0-25.791,0.113-51.309,0-77.101c-0.038-8.776,0.041-17.573-0.005-26.354c-0.007-1.415-0.013-2.704-0.019-3.897
			c4.116-0.034,8.283-0.102,11.618-0.106c22.249-0.028,44.581-0.093,66.917-0.093c22.604,0,44.968,0.098,67.572,0
			c6.771-0.029,13.556,0.012,20.333-0.003c-0.126,8.893,0.082,20.279,0.068,27.317c-0.04,20.498-0.071,41.013,0.062,61.493
			c0.133,20.365,0.112,40.8,0.112,61.289c0,14.544,0.042,29.412,0.04,44.118c6.214-0.055,12.422-0.229,18.623-0.543
			c-0.043-3.506-0.094-6.904-0.098-9.765c-0.035-25.386-0.118-50.867-0.118-76.353c0-25.791,0.125-51.309,0-77.101
			c-0.042-8.776,0.046-17.573-0.006-26.354c-0.025-4.314-0.03-7.538-0.089-9.961c0.257-3.045,0.325-6.111-0.599-8.989
			c-4.405,0.6-9.139,0.763-13.966,0.746c-0.757-0.428-1.516-0.621-2.19-0.019c-6.557-0.09-13.221-0.446-19.419-0.457
			c-17.97-0.031-35.949-0.056-53.898,0.049c-17.848,0.104-35.757,0.088-53.714,0.088c-18.203,0-36.989,0.067-55.103,0.006
			c-0.266-0.08-0.528-0.091-0.781-0.002c-0.257-0.001-0.518-0.001-0.775-0.002c0.088,0,0.151,0.164,0.196,0.427
			c-0.269,0.31-0.524,0.769-0.753,1.47C88.491,433.444,89.034,457.584,89.013,469.42z"/>
	</g>
	<path style="opacity:0.31;fill:#272525;" d="M108.162,622.219c3.956-0.682,7.926-1.268,11.91-1.756
		c-16.729-3.229-45.374,16.389-16.593,25.382c19.049,5.951,50.768,5.702,70.6,6.089c28.122,0.548,55.837-7.044,84.13-7.27
		c22.07-0.176,42.786-0.637,64.376-2.061c19.324-1.275,57.028,2.245,73.421-8.995c25.947-17.79-30.926-15.969-44.544-15.709
		c-58.644,1.119-114.336,7.005-173.507,2.53c-17.111-1.294-52.874,2.039-61.831,0.06L108.162,622.219z"/>
	<path style="opacity:0.31;fill:#272525;" d="M657.657,635.65c4.344-2.773-72.281-9.122-81.806-8.071
		c-13.926,1.536-43.451,2.296-52.878,11.255c-23.751,22.572,28.947,11.783,39.903,10.91
		C595.169,647.173,630.512,652.975,657.657,635.65z"/>
	<path style="opacity:0.31;fill:#272525;" d="M732.772,624.546c-12.893,1.921-44.235,0.412-47.172,15.362
		c32.81,16.526,102.169,10.449,131.985-11.36c-10.908-16.627-70.397-9.475-84.813-2.026V624.546z"/>
	<path style="opacity:0.31;fill:#272525;" d="M1083.116,633.643c6.202-15.306-155.526-11.666-174.71,7.37
		c16.938,16.497,64.081,2.921,85.2,1.874C1009.156,642.116,1075.947,651.335,1083.116,633.643z"/>
	<path style="fill:#2E4AB2;" d="M900.249,323.685c-1.478-1.617-1.427-5.15-1.737-6.962c-1.225-7.144-2.475-14.302-4.455-21.283
		c-0.121-0.427-0.238-0.915-0.001-1.29c0.19-0.3,0.551-0.435,0.888-0.546c1.993-0.659,5.965-0.304,7.831,0.926
		c0.722,0.477,1.189,1.248,1.601,2.009c1.478,2.732,2.567,5.676,3.222,8.713c0.654,3.031,0.876,6.138,1.096,9.231
		c0.2,2.806,0.399,5.611,0.599,8.416c0.024,0.343,0.039,0.72-0.169,0.994c-0.747,0.98-3.397-0.109-4.478,0.004
		c-0.944,0.099-1.879,0.735-2.84,0.606C901.151,324.415,900.645,324.119,900.249,323.685z"/>
	<g>
		<path style="fill:#4A4E31;" d="M342.381,362.268c-7.415,2.89-15.341,6.67-18.891,13.349c-2.197,4.132-2.346,8.743-2.45,13.176
			c-0.78,33.462-1.561,66.925-2.342,100.387c-0.315,13.508-1.916,26.329,2.398,40.963c8.34-3.736,19.46-5.574,21.59-13.735
			c7.359-28.191,15.268-51.409,39.183-71.501c7.747-6.508,13.875-28.545,17.164-37.51c1.941-5.291,1.318-10.845,0.54-16.154
			c-1.094-7.458-2.448-14.862-4.059-22.197C389.423,341.337,364.442,353.67,342.381,362.268z"/>
		<path style="fill:#4A4E31;" d="M337.664,495.364c-5.465-0.97-16.436,12.366-17.99,17.519c-0.531,1.759-0.55,3.567-0.565,5.349
			c-0.309,36.205-0.335,64.742-0.644,100.946c3.029-0.021,5.449,1.61,7.956-0.186c4.338-27.879,14.208-63.579,18.547-91.459
			C346.37,518.525,351.553,497.829,337.664,495.364z"/>
		<path style="fill:#4A4E31;" d="M373.035,573.904c6.083,14.357,11.711,24.892,13.063,39.194c7.217-0.231,6.623,1.682,8.553-2.736
			c1.929-4.417,1.131-9.456-0.018-14.365c-3.63-15.505-4.294-32.656-9.326-48.165c-7.56-23.302-10.681-46.673-9.375-69.383
			c0.678-11.785,2.544-23.395,5.61-34.723c2.517-9.301,11.871-20.038-1.22-28.904c-21.944-14.863-44.284-4.918-50.031,8.968
			c-7.856,18.983,3.893,45.756,10.317,66.198C349.422,518.034,361.207,545.99,373.035,573.904z"/>
		<path style="fill:#453C36;" d="M274.966,304.109c-0.221-0.488-0.389-1.006-0.701-1.442c-0.651-0.908-1.817-1.297-2.928-1.416
			c-1.112-0.118-2.244-0.024-3.344-0.225c-3.42-0.625-6.223-4.015-9.659-3.487c-1.063,0.164-2.034,0.704-2.904,1.337
			c-1.141,0.829-2.201,1.919-2.491,3.299c-0.457,2.171,1.08,4.207,2.521,5.895c0.795,0.932,1.618,1.886,2.7,2.458
			c0.893,0.472,1.904,0.655,2.886,0.882c2.436,0.564,4.853,1.472,6.751,3.1c1.581,1.356,2.881,3.246,4.902,3.747
			c3.594,0.891,6.987-3.061,7.402-6.337C280.525,308.577,276.208,306.854,274.966,304.109z"/>
		<path style="fill:#AA6A64;" d="M247.098,284.538c-3.028,1.883-2.042,5.141,0.09,8.119c24.803-5.271,49.721-9.722,74.712-13.346
			c7.755-1.125,16.337-2.661,21.382-9.599c2.154-2.962,3.41-6.63,4.328-10.312c1.652-6.63,1.924-14.802-2.668-19.063
			c-6.57-6.094-14.107-0.079-19.541,4.794c-6.404,5.743-10.387,8.043-18.595,11.156C287.76,263.507,264.781,273.543,247.098,284.538
			z"/>
		<path style="fill:#AA6A64;" d="M402.87,293.815c-2.078-14.222-5.22-28.752-13.396-40.574
			c-8.175-11.821-22.473-20.401-36.65-18.029c-3.206,0.537-6.402,1.657-8.833,3.815c-1.903,1.69-3.237,3.923-4.39,6.192
			c-4.011,7.897-6.161,16.587-8.158,25.216c-8.556,36.969-14.907,74.448-19.008,112.172c-0.264,2.43-0.44,5.149,1.099,7.05
			c1.611,1.991,4.473,2.316,7.028,2.49c12.052,0.821,24.103,1.641,36.154,2.461c11.243,0.765,22.8,1.542,33.925-0.738
			c14.494-2.971,13.622-7.953,14.737-21.711C407.493,346.061,406.657,319.724,402.87,293.815z"/>
		<path style="fill:#453C36;" d="M324.322,164.577c2.297-6.817,5.884-15.208,13.284-16.97c8.01-1.907,19.281,3.376,25.072,8.441
			c7.151,6.256,11.649,15.106,14.156,24.27c2.735,9.998,3.18,21.056-1.29,30.408c-4.471,9.352-14.703,16.366-24.955,14.838
			c-6.846-1.02-12.725-5.531-17.194-10.817C321.898,201.153,318.673,181.342,324.322,164.577z"/>
		<path style="fill:#453C36;" d="M244.782,296.172c-0.667,0.409-1.43,0.631-2.181,0.848c-1.967,0.567-3.934,1.135-5.902,1.703
			c-0.894,0.257-1.806,0.518-2.736,0.49c-0.931-0.028-1.899-0.392-2.43-1.157c-0.491-0.708-0.533-1.658-0.271-2.478
			c0.261-0.82,0.793-1.528,1.379-2.16c1.327-1.427,2.989-2.542,4.814-3.229c1.452-0.547,3.046-0.849,4.253-1.822
			c0.538-0.434,0.981-0.988,1.568-1.353c0.895-0.555,2.088-0.589,3.013-0.086C249.309,288.574,247.131,294.733,244.782,296.172z"/>
		<path style="fill:#333333;" d="M329.687,144.69c2.492-1.308,2.674-5.007,4.908-6.703c0.118-0.214,0.221-0.436,0.285-0.68
			c0.21-0.807,0.033-1.668,0.185-2.487c0.52-2.789,4.29-3.503,7.034-2.781c-0.706-3.564,4.512-6.509,7.198-4.062
			c0.926-2.696,3.968-4.479,6.772-3.97c2.804,0.509,5.027,3.246,4.947,6.095c0.955-1.254,2.172-2.307,3.549-3.073
			c2.555,1.673,4.26,4.582,4.469,7.628c2.823-2.358,7.974-0.161,8.227,3.508c1.208-1.507,3.8-1.016,5.046,0.461
			c1.245,1.476,1.513,3.518,1.73,5.438c1.438-1.875,4.671-1.401,6.126,0.461c1.455,1.862,1.463,4.498,0.859,6.782
			c3.25,0.775,6.148,2.92,7.839,5.801c-0.676,0.936-1.352,1.873-2.027,2.809c4.85,0.552,8.816,5.325,8.483,10.194
			c1.065,1.316,1.527,3.148,0.944,4.75c-0.798,2.195-3.372,3.455-5.629,3.036c1.982,0.962,3.315,3.28,2.896,5.474
			c-0.309,1.614-1.525,2.946-3.021,3.607c1.612,2.508,2.469,5.252,1.292,7.886c-1.143,2.557-3.938,3.863-6.794,3.963
			c-0.511,0.342-1.07,0.584-1.696,0.652c-1.009,0.111-2.004-0.569-2.493-1.417c-0.258-0.103-0.51-0.218-0.761-0.337
			c-0.699,0.821-1.718,1.377-2.799,1.441c-0.871-0.336-1.578-1.069-1.883-1.951c-0.562,0.532-1.299,0.837-2.064,0.937
			c-0.253,0.171-0.516,0.329-0.779,0.483l-0.613,0.356c-0.061-0.749-0.392-1.463-1.098-1.941c-0.861-0.584-1.637-0.893-2.503-1.065
			c-0.092-0.054-0.152-0.13-0.251-0.178c-0.192-0.092-0.374-0.207-0.559-0.313c-0.371-0.34-0.782-0.624-1.199-0.905
			c0.136-0.149,0.277-0.291,0.411-0.44c-0.759-0.132-1.501-0.477-1.985-1.045c-1.376-1.614-1.634-3.922-2.852-5.659
			c-0.936-1.333-1.977-3.802-0.354-3.945c-2.713-1.25-4.957-3.49-6.214-6.199c-3.457,0.702-7.13-2.49-6.916-6.012
			c-3.168-0.778-5.734-3.59-6.221-6.815c-3.024,1.3-6.961-1.364-6.88-4.654c-0.504,1.696-2.486,2.792-4.191,2.32
			c-1.675-0.465-2.79-2.365-2.411-4.057c-0.036-0.006-0.072-0.017-0.109-0.023c-0.074,0.041-0.148,0.082-0.222,0.124
			c-0.234,0.293-0.47,0.585-0.704,0.877c-0.665-1.299-2.304-2.07-3.783-2.675c-0.589-0.24-1.183-0.246-1.735-0.1
			c0.147-0.237,0.277-0.484,0.428-0.719c-0.263,0.035-0.531,0.027-0.781-0.048c-1.113-0.334-1.848-1.368-2.454-2.359
			c-1.077-1.761-2.053-3.782-1.678-5.812C327.866,146.223,328.691,145.212,329.687,144.69z"/>
		<path style="fill:#592626;" d="M326.234,615.024c-4.68-0.576-9.523,0.256-13.743,2.359c-2.494,1.243-4.752,2.906-7.164,4.301
			c-7.121,4.117-15.406,5.793-23.603,6.455c-1.28,0.104-2.623,0.204-3.705,0.897c-1.081,0.693-1.761,2.199-1.103,3.301
			c5.318,0.597,10.688,0.397,16.035,0.195c8.971-0.338,17.941-0.676,26.912-1.014c3.717-0.14,7.498-0.292,11.013-1.514
			c0.484-0.168,0.99-0.379,1.278-0.803c0.275-0.407,0.295-0.928,0.297-1.418C332.482,622.153,333.055,615.863,326.234,615.024z"/>
		<path style="fill:#592626;" d="M381.367,603.96c-0.982,0.257-2.037,0.427-2.822,1.071c-0.7,0.576-1.076,1.447-1.401,2.294
			c-1.205,3.152-2.026,6.451-2.442,9.8c-0.176,1.424-1.23,0.746-1.86,2.034c-0.805,1.645-2.359,2.793-3.96,3.682
			c-2.56,1.423-5.39,2.357-8.295,2.734c-3.098,0.403-6.281,0.184-9.312,0.941c-0.582,0.145-0.283,2.533-0.514,3.086
			c-0.483,1.151,1.162,1.999,2.409,2.079c3.288,0.211,6.568-0.424,9.803-1.056c8.17-1.597,16.348-3.195,24.375-5.4
			c2.899-0.797,6.139-1.99,7.243-4.788c0.581-1.474,0.434-3.12,0.279-4.697c-0.484-4.902-0.967-9.804-1.451-14.706
			c-0.108-1.092-0.236-2.24-0.866-3.14c-2-2.856-3.524,0.979-4.801,2.299C386.016,601.992,383.79,603.325,381.367,603.96z"/>
		<path style="fill:#2E4AB2;" d="M231.169,277.961c-1.627,1.467-1.918,4.988-2.401,6.761c-1.909,6.993-3.844,13.996-6.489,20.754
			c-0.162,0.413-0.325,0.888-0.126,1.284c0.161,0.317,0.507,0.486,0.832,0.629c1.92,0.849,5.908,0.879,7.883-0.165
			c0.764-0.405,1.303-1.128,1.787-1.845c1.735-2.577,3.103-5.402,4.049-8.361c0.943-2.954,1.464-6.025,1.982-9.082
			c0.47-2.773,0.939-5.546,1.409-8.319c0.057-0.34,0.109-0.713-0.073-1.006c-0.649-1.047-3.392-0.22-4.456-0.436
			c-0.93-0.189-1.799-0.913-2.769-0.878C232.138,277.323,231.605,277.568,231.169,277.961z"/>
		<path style="fill:#AF716D;" d="M272.558,315.672c1.574-3.168,3.146-6.336,4.719-9.503c4.966,0.82,8.708,4.784,12.282,8.328
			c4.931,4.891,10.26,9.38,15.919,13.407c3.323,2.365,7.18,4.671,11.209,4.047c4.944-0.764,8.097-5.532,10.621-9.851
			c9.492-16.242,18.985-32.485,28.478-48.727c7.507-12.845,15.935-8.154,21.318,3.396c4.895,10.504-1.426,22.355-6.261,31.846
			c-6.251,12.27-13.163,24.204-20.697,35.73c-4.424,6.769-9.776,13.901-17.655,15.718c-3.801,0.877-7.805,0.381-11.555-0.689
			c-12.092-3.448-21.697-12.45-30.588-21.343c-5.773-5.775-11.463-11.632-17.068-17.571c-0.62-0.658-1.269-1.376-1.396-2.271
			C271.761,317.316,272.165,316.463,272.558,315.672z"/>
	</g>
	<g>
		<path style="fill:#E8DBCE;" d="M694.263,305.866c-1.07-0.533-2.128-1.168-2.864-2.112c-1.362-1.748-1.36-4.162-1.297-6.377
			c0.025-0.887,0.18-1.969,1.006-2.293c1.118-0.437,2.332,0.98,3.457,0.562c-0.185-0.974-0.367-1.993-0.084-2.942
			c0.284-0.949,1.196-1.79,2.175-1.639c0.604,1.667,0.23,3.668,1.235,5.128c1.23,1.787,3.817,1.842,5.712,2.898
			c1.557,0.868,2.609,2.401,3.602,3.88c1.654,2.46,0.218,5.151-2.615,5.439C701.249,308.75,697.193,307.324,694.263,305.866z"/>
		<path style="fill:#AFD9C4;" d="M777.123,315.023c-2.402,8.2-5.946,17.364-13.955,20.34c-5.251,1.952-11.108,0.65-16.466-0.988
			c-10.712-3.277-21.03-7.841-30.661-13.562c-6.102-3.626-12.656-9.216-11.755-16.256c0.138-1.082,0.5-2.203,1.34-2.898
			c1.971-1.632,4.86-0.001,6.934,1.499c10.176,7.359,22.409,11.842,34.932,12.799c1.572,0.12,3.195,0.18,4.679-0.35
			c3.886-1.386,5.32-6.037,6.179-10.072c3.401-15.98,6.027-32.125,7.865-48.359c0.354-3.126,0.706-6.347,2.195-9.119
			c2.317-4.312,7.444-6.928,12.295-6.273c15.802,2.134,8.75,21.423,6.768,31.273C784.628,287.186,781.175,301.192,777.123,315.023z"
			/>
		<path style="fill:#ACB18F;" d="M740.912,363.348c0,0-11.843,223.02-11.943,257.249l12.961,0.039
			c0,0,20.854-204.464,31.211-214.719c0,0,4.286-0.787,5.942,0c1.656,0.786,4.003,203.754,1.243,216.452h13.126
			c0,0,23.847-208.824,22.367-257.633c0,0,0.957-24.517-32.006-22.309C750.849,344.635,744.224,338.998,740.912,363.348z"/>
		<path style="fill:#ACB18F;" d="M742.691,617.349c-2.626-4.732-10.805-0.907-16.188-0.369c-4.305,2.79-8.969,5.026-13.839,6.637
			c-1.414,0.468-2.9,0.913-3.988,1.931s-1.618,2.814-0.742,4.019c0.765,1.053,2.228,1.256,3.526,1.354
			c9.941,0.752,19.953,0.552,29.856-0.594c0.594-0.069,1.227-0.157,1.677-0.55c0.36-0.313,0.55-0.776,0.703-1.229
			C744.938,624.894,744.563,620.723,742.691,617.349z"/>
		<path style="fill:#ACB18F;" d="M777.313,616.241c0,0,13.796-0.946,16.015,0c2.217,0.946,5.668,11.541,2.463,13.512
			c-3.204,1.971-35.479,1.971-35.479,1.971s-3.696-4.077,5.421-7.951C774.849,619.898,776.327,619.73,777.313,616.241z"/>
		<path style="fill:#EFE7DF;" d="M763.151,210.515c6.547,0.958,13.156-1.441,19.758-1.884c-1.001-5.61,1.873-11.085,3.194-16.629
			c1.786-7.499,0.713-15.352-0.51-22.963c-0.986-6.134-2.158-12.485-5.767-17.542c-0.718-1.006-1.573-1.983-2.716-2.451
			c-0.978-0.4-2.068-0.389-3.125-0.371c-9.992,0.166-20.129,0.352-29.718,3.168c-0.7,0.205-1.439,0.454-1.884,1.033
			c-0.398,0.517-0.484,1.202-0.548,1.852c-1.742,17.28,0.825,34.968,7.332,51.066C753.417,208.254,758.052,209.769,763.151,210.515z
			"/>
		<path style="fill:#EBEFEB;" d="M761.748,217.54c1.453-0.498,2.889-1.049,4.317-1.597c7.175-2.753,14.35-5.506,21.525-8.259
			c1.065-0.408,2.204-0.823,3.32-0.59c0.861,0.18,1.594,0.727,2.279,1.28c13.4,10.808,17.043,28.383,20.721,44.368
			c13.002,56.509,17.096,114.891,12.1,172.559c-32.013,5.47-64.382,9.025-96.857,10.639c1.807-0.087,5.533-39.586,5.951-43.465
			c2.455-22.827,3.775-45.787,3.554-68.75c-0.221-23.053,0.998-46.004,2.67-69.004c0.676-9.304,1.446-18.601,2.298-27.89
			c0.334-3.635,10.845-7.399,13.499-7.972C758.693,218.521,760.23,218.06,761.748,217.54z"/>
		<path style="fill:#E0C74E;" d="M851.767,256.311c-0.372-0.931-0.893-1.828-0.991-2.826c-0.163-1.654,0.852-3.159,1.457-4.708
			c1.972-5.055-1.13-11.465-6.318-13.056c4.31-2.513,9.294-6.58,7.872-11.362c-0.924-3.106-4.187-4.753-6.899-6.525
			c-2.712-1.773-5.385-4.874-4.243-7.907c0.704-1.868,2.657-2.988,3.589-4.754c1.945-3.687-1.418-8.109-5.189-9.888
			c-3.771-1.778-8.194-2.278-11.458-4.871c-4.83-3.835-5.509-10.841-5.268-17.003c0.242-6.163,0.898-12.809-2.358-18.046
			c-5.694-9.154-18.518-8.496-27.7-11.03c-0.918-0.254-2.253-0.927-3.743-1.71c-6.966-6.142-15.577-9.064-25.185-8.138
			c-5.587,0.539-11.245,1.54-16.78,1.59c-0.512,0.173-1.091,0.259-1.749,0.208c-3.518-0.267-8.876-0.257-11.107,3.02
			c-0.057,0.085-0.095,0.186-0.148,0.275c0.103,0.155,0.21,0.309,0.312,0.465c-0.238,0.159-0.51,0.258-0.765,0.385
			c-1.148,2.732-0.774,6.562,0.953,8.766c1.088,1.389,1.235,3.007,0.772,4.381c12.543,5.671,25.708,4.061,39.268,0.63
			c-2.42,8.154,0.116,22.299,2.047,30.462c4.704-2.843,8.608,2.178,7.632,7.24c-0.632,3.278-4.215,2.997-5.028,5.922
			c-0.486,1.75,0.613,5.959,1.483,8.816c-0.699,1.942-1.121,3.943-1.026,6.057c0.118,2.622,1.03,5.248,0.515,7.822
			c-0.868,4.339-5.631,8.115-4.035,12.241c0.611,1.578,2.097,2.772,2.395,4.438c0.172,0.969-0.089,1.956-0.339,2.908
			c-1.723,6.546-3.039,13.198-3.941,19.907c-0.237,1.771-0.444,3.594-0.002,5.325c1.489,5.84,8.886,7.445,14.892,7.944
			c-1.61,2.735-0.202,6.464,2.324,8.385c2.527,1.92,5.832,2.435,8.997,2.675c5.65,0.429,11.351,0.178,16.942-0.746
			c0.225-1.353,0.451-2.708,0.677-4.061c3.745,2.491,8.873,2.729,12.832,0.594c3.959-2.134,6.58-6.548,6.557-11.046
			c3.546,1.409,7.891,0.51,10.586-2.19C852.292,264.201,853.183,259.854,851.767,256.311z"/>
		<path style="fill:#333333;" d="M806.812,380.63c-0.272-1.454-0.756-3.013-2.211-3.854c-0.945-0.547-2.159-0.702-3.327-0.843
			c-3.296-0.399-6.592-0.797-9.888-1.196c0.158-36.508,5.621-73.022,2.812-109.425c-0.511-6.616-1.297-13.227-2.802-19.689
			c-1.178-5.06-3.484-10.73-8.472-12.177c-4.186-1.214-8.672,1.195-11.538,4.478c-6.176,7.076-6.764,17.257-7.516,26.619
			c-0.759,9.432-1.994,18.819-3.449,28.166c-2.573,16.525-5.853,32.93-8.479,49.446c-1.323,8.318-2.485,16.665-3.303,25.05
			c-0.05,0.516-0.218,1.427-0.39,2.475c-0.925-0.05-1.853-0.082-2.786-0.071c-2.663,0.028-5.341,0.344-7.939,0.935
			c-0.981,0.223-1.987,0.502-2.744,1.067c-1.088,0.811-1.46,2.043-1.777,3.192c-3.05,11.085-6.095,22.677-2.58,33.397
			c0.261,0.8,0.588,1.628,1.336,2.178c0.738,0.542,1.774,0.731,2.764,0.901c12.407,2.123,24.876,4.054,37.397,5.791
			c6.152,0.854,12.327,1.612,18.49,2.421c4.394,0.578,8.472,2.576,11.946-1.413c1.955-2.243,2.335-5.066,2.651-7.744
			c0.503-4.271,1.008-8.541,1.511-12.813C807.185,391.878,807.849,386.167,806.812,380.63z M789.849,318.569
			c-1.517,7.798-1.419,15.809-1.312,23.752c0.143,10.709,0.295,21.417,0.449,32.126c-11.313-1.368-22.626-2.737-33.94-4.105
			c-0.813-0.098-1.629-0.196-2.444-0.288c-0.472-13.476,1.623-26.919,3.74-40.249c0.825-5.193,1.649-10.385,2.475-15.578
			c0.73-4.6,1.462-9.204,2.526-13.738c0.965-4.109,2.202-8.156,2.989-12.303c2.796-14.744,0.098-31.213,8.286-43.788
			c2.045-3.142,5.912-6.128,9.232-4.386c0.88,0.462,1.576,1.207,2.206,1.977c6.477,7.917,7.279,18.9,7.798,29.117
			c0.318,6.253,0.635,12.506,0.952,18.76c0.274,5.399,0.546,10.84-0.243,16.189C791.94,310.277,790.664,314.377,789.849,318.569z"/>
		<path style="fill:#E8DBCE;" d="M750.769,395.16c-0.058-0.182-0.228-0.301-0.373-0.425c-0.823-0.707-1.036-1.926-0.83-2.991
			c0.206-1.065,0.762-2.023,1.271-2.981c1.784-3.356,3.091-6.965,3.871-10.685c0.121-0.583,0.237-1.184,0.557-1.686
			c0.644-1.015,1.982-1.385,3.181-1.283c1.198,0.102,2.327,0.582,3.485,0.907c0.922,0.259,2.615,0.535,2.794,1.651
			c0.221,1.38-0.22,3.243-0.33,4.647c-0.256,3.255-0.625,6.503-1.105,9.733c-0.275,1.842-0.586,3.679-0.933,5.509
			c-0.241,1.271-0.503,2.549-1.009,3.739c-0.696,1.638-1.855,3.076-3.307,4.104c-0.814,0.577-1.744,1.034-2.738,1.121
			c-2.325,0.207-4.438-1.728-5.113-3.963c-0.674-2.235-0.208-4.655,0.52-6.872C750.765,395.515,750.823,395.331,750.769,395.16z"/>
		<path style="fill:#E8E8E8;" d="M771.997,365.533c1.368-7.425,3.185-14.676,5.322-21.917c1.669-5.653,3.797-11.16,5.591-16.775
			c3.456-10.817,5.654-21.99,7.827-33.136c2.72-13.951,5.397-28.497,1.657-42.21c-1.013-3.715-2.562-7.415-5.338-10.08
			c-2.777-2.667-6.994-4.093-10.6-2.744c-2.763,1.034-4.785,3.519-5.931,6.238c-1.147,2.719-1.535,5.686-1.912,8.612
			c-0.411,3.193-0.823,6.386-1.234,9.579c-0.683,5.307-1.367,10.619-1.67,15.96c-0.581,10.236,0.241,20.506-0.175,30.75
			c-0.814,20.094-6.354,39.649-11.31,59.14c-1.085,4.271-2.153,8.699-1.415,13.044c0.199,1.174,6.846,2.935,8.019,3.211
			c1.894,0.447,3.197,1.779,4.89,0.417c2.003-1.612,3.17-6.432,3.592-8.729C769.996,373.17,771.311,369.257,771.997,365.533z"/>
		<path style="fill:#FFFFFF;" d="M690.318,299.718c-0.059-0.175-0.052-0.377-0.005-0.54c0.06-0.208,0.17-0.394,0.315-0.587
			c0.009,0.211,0.002,0.421-0.049,0.621C690.532,299.399,690.438,299.572,690.318,299.718z"/>
	</g>
	<g>
		<path style="fill:#736357;" d="M947.285,433.681c0.369,7.675,0.952,15.338,1.535,23.001c0.871,11.462,1.743,22.924,2.615,34.387
			c0.279,3.666,0.648,7.571,2.929,10.454c0.235,0.297,0.504,0.591,0.859,0.723c1.196,0.445,2.124-1.077,2.513-2.293
			c4.633-14.477,11.608-28.203,20.57-40.48c2.287-3.134,4.784-6.246,8.126-8.217c2.514-1.482,5.376-2.241,8.199-2.983
			c5.651-1.487,11.303-2.973,16.954-4.459c3.314-0.871,6.754-1.809,9.341-4.054c2.038-1.77,3.364-4.202,4.646-6.578
			c6.493-12.033,13.052-24.232,16.287-37.518c2.359-9.69,2.888-19.745,2.627-29.715c-0.026-0.993-0.065-2.008-0.431-2.931
			c-0.505-1.269-1.58-2.228-2.725-2.971c-4.297-2.79-9.697-3.079-14.817-3.255c-19.438-0.666-39.266-0.868-58.265,3.887
			c-5.847,1.463-15.809,2.981-18.58,9.227c-3.404,7.676-2.217,19.487-2.54,27.738C946.657,409.651,946.709,421.678,947.285,433.681z
			"/>
		<path style="fill:#736357;" d="M1057.545,608.491c3.076,5.333,8.405-3.502,13.575-6.572
			c-9.128-18.512-10.057-37.024-19.184-55.536c-2.887-5.855-8.307-14.484-10.057-20.686c-2.151-7.624-4.102-12.862-4.454-20.703
			c-1.363-30.403-2.725-60.806-4.088-91.209c-0.115-2.55-0.25-5.181-1.468-7.495c-3.501-6.646-13.414-7.33-21.446-7.041
			c-1.761,0.063-3.681,0.183-4.962,1.269c-1.464,1.24-1.583,3.288-1.604,5.123c-0.275,23.977-15.755,1.604-16.031,25.582
			c-0.097,8.431,8.689,63.754,10.649,72.024c3.466,14.618,13.325,31.42,22.069,44.148
			C1034.01,566.99,1044.208,585.367,1057.545,608.491z"/>
		<path style="fill:#736357;" d="M986.827,419.967c-10.885-1.348-21.769-2.696-32.654-4.043c-0.552-1.368,2.162,0.033,1.996,1.476
			c-5.222,45.482-2.57,91.56,2.439,137.213c2.159,19.674,2.509,39.434,0.646,59.075c4.478,0.436,12.191,1.061,16.669,1.498
			c7.609-61.262,11.982-122.713,19.591-183.975c0.385-3.099,0.601-6.675-1.803-8.909
			C991.949,420.663,989.29,420.272,986.827,419.967z"/>
		<path style="fill:#E8DBCE;" d="M905.873,316.893c-1.119-0.557-2.223-1.221-2.991-2.206c-1.423-1.826-1.421-4.347-1.355-6.661
			c0.026-0.926,0.188-2.057,1.051-2.394c1.167-0.457,2.436,1.023,3.611,0.586c-0.193-1.017-0.384-2.081-0.088-3.073
			c0.297-0.991,1.249-1.87,2.272-1.712c0.63,1.742,0.24,3.831,1.29,5.356c1.285,1.866,3.987,1.924,5.966,3.027
			c1.626,0.906,2.724,2.507,3.762,4.053c1.727,2.569,0.227,5.38-2.733,5.681C913.169,319.904,908.933,318.416,905.873,316.893z"/>
		<path style="fill:#E8DBCE;" d="M970.586,218.428c6.911-0.005,13.376-3.489,20.13-4.951c-1.888-5.645,0.251-11.74,0.772-17.669
			c0.706-8.021-1.597-15.973-4.017-23.651c-1.951-6.189-4.128-12.573-8.626-17.25c-0.895-0.931-1.926-1.81-3.179-2.12
			c-1.071-0.265-2.196-0.087-3.286,0.092c-10.301,1.69-20.746,3.423-30.226,7.791c-0.692,0.318-1.419,0.689-1.79,1.353
			c-0.333,0.595-0.317,1.316-0.286,1.997c0.828,18.121,6.169,36.008,15.34,51.655C960.185,217.572,965.204,218.432,970.586,218.428z
			"/>
		<path style="fill:#6087A2;" d="M1038.518,370.48l0.112-0.108c0.072-0.079,0.137-0.152,0.199-0.22
			c0.149-0.226,0.308-0.447,0.454-0.676c2.007-3.125,3.73-6.418,5.476-9.695c2.978-37.811-1.704-75.889-13.919-112.866
			c-3.841-11.629-7.646-24.413-21.642-32.277c-0.715-0.402-1.481-0.8-2.381-0.931c-1.165-0.17-2.354,0.132-3.466,0.429
			c-7.494,2.003-14.988,4.005-22.482,6.008c-1.492,0.398-2.992,0.8-4.51,1.162c-1.586,0.379-3.191,0.714-4.827,0.96
			c-2.773,0.417-13.751,3.156-14.1,5.799c-0.89,6.758-1.695,13.521-2.401,20.29c-1.747,16.732-3.02,33.429-2.789,50.198
			c0.231,16.705-1.148,33.407-3.712,50.014c-0.2,1.293-1.124,8.023-2.25,14.942c0.064,0.12,0.123,0.241,0.188,0.361
			c0.987,1.813,2.049,3.587,3.208,5.296c0.105,0.154,0.315,0.443,0.531,0.735c0.108,0.128,0.204,0.24,0.269,0.314
			c1.312,1.476,2.74,2.865,4.229,4.16c0.117,0.101,0.325,0.289,0.55,0.495c-2.053-1.898,0.124,0.021,0.737,0.424
			c1.55,1.019,3.158,1.945,4.811,2.785c0.417,0.212,2.084,0.896,2.246,0.994c0.173,0.063,0.349,0.116,0.522,0.177
			c23.56-1.228,47.041-3.127,70.353-5.708C1035.398,372.476,1036.96,371.294,1038.518,370.48z"/>
		<path style="fill:#7398AD;" d="M992.418,326.456c-2.509,8.564-6.211,18.136-14.576,21.245c-5.484,2.038-11.603,0.678-17.198-1.033
			c-11.189-3.423-21.965-8.189-32.024-14.165c-6.374-3.787-13.219-9.625-12.279-16.979c0.144-1.13,0.521-2.301,1.399-3.027
			c2.059-1.704,5.077-0.001,7.242,1.565c10.629,7.687,23.407,12.369,36.485,13.368c1.642,0.126,3.337,0.187,4.888-0.366
			c4.058-1.448,5.556-6.305,6.453-10.52c3.552-16.69,6.294-33.552,8.214-50.508c0.37-3.266,0.737-6.63,2.292-9.525
			c2.42-4.503,7.775-7.235,12.841-6.551c16.505,2.229,9.139,22.375,7.069,32.663C1000.256,297.382,996.649,312.01,992.418,326.456z"
			/>
		<path style="fill:#4D4D4D;" d="M960.422,611.974c-0.265-0.003-0.538-0.006-0.785,0.062c-0.336,0.092-0.573,0.299-0.78,0.504
			c-0.954,0.937-1.642,2.004-2.012,3.122c-0.344,1.042-0.431,2.154-1.201,3.08c-0.855,1.03-2.421,1.664-3.96,2.187
			c-3.976,1.352-8.255,2.275-12.634,2.727c-0.971,0.1-1.97,0.182-2.847,0.488c-2.482,0.866-3.085,3.093-3.392,5.009
			c-0.089,0.555-0.101,1.232,0.573,1.537c0.364,0.165,0.827,0.165,1.262,0.159c12.53-0.152,17.881-0.216,30.411-0.368
			c3.059-0.037,6.214-0.165,9.168-0.717c0.399-0.074,0.812-0.165,1.107-0.366c0.324-0.22,0.457-0.538,0.57-0.843
			c1.609-4.34,1.762-9.023,1.341-13.478c-0.131-1.385-0.383-2.522-2.586-2.81c-3.135-0.409,0.306-0.103-2.887-0.146
			C967.987,612.073,964.204,612.023,960.422,611.974z"/>
		<path style="fill:#4D4D4D;" d="M1057.888,607.536c-0.481,0.251-0.975,0.524-1.295,0.964c-0.266,0.365-0.388,0.814-0.453,1.26
			c-0.379,2.588,0.977,5.258,0.328,7.792c-0.428,1.672-1.663,3.003-2.892,4.215c-2.009,1.984-4.12,3.864-6.321,5.631
			c-0.929,0.745-1.922,1.534-2.312,2.66c-0.689,1.983,1.271,4.351,3.348,4.044c0.771-0.113,1.465-0.513,2.137-0.907
			c9.177-5.377,18.133-11.128,26.841-17.233c1.071-0.752,2.246-1.694,2.3-3.002c0.029-0.689-0.272-1.345-0.575-1.966
			c-1.076-2.203-2.27-4.349-3.573-6.425c-0.681-1.085-1.363-2.206-2.148-3.22c-1.046-1.352-1.066-1.459-2.53-0.682
			C1066.473,602.937,1062.202,605.285,1057.888,607.536z"/>
		<path style="fill:#564C44;" d="M1010.143,175.015c0.006-3.871-2.249-7.322-4.18-10.676c-3.211-5.58-5.745-11.589-9.666-16.696
			c-3.921-5.107-9.647-9.348-16.085-9.472c-2.68-0.051-5.317,0.608-7.916,1.264c-11.072,2.791-22.273,5.631-32.326,11.046
			c-1.257,0.677-2.54,1.436-3.321,2.631c-0.692,1.059-0.914,2.348-1.122,3.596c-0.294,1.766-0.586,3.534-0.88,5.3
			c-0.184,1.105-0.367,2.241-0.142,3.339c0.686,3.351,4.688,4.814,8.105,4.978c3.391,0.162,6.774-0.357,10.13-0.875
			c3.213-0.495,10.799-3.245,13.464-0.349c1.317,1.43,0.955,3.84,1.848,5.535c1.097,2.082,3.136,3.339,4.5,5.198
			c1.425,1.714,2.421,4.159,1.417,6.149c1.884-1.14,4.219-1.513,6.365-1.018c0.755,0.174,1.519,0.474,2.019,1.064
			c0.963,1.138,0.567,2.974-0.459,4.055s-2.498,1.593-3.91,2.068c6.15,5.831,8.488,15.354,5.738,23.37
			c4.671-0.52,8.527-3.823,11.721-7.27c2.886-3.115,5.526-6.514,7.323-10.362c0.834-1.785,1.479-3.651,2.122-5.513
			c1.282-3.708,2.564-7.416,3.845-11.124C1009.433,179.227,1010.14,177.157,1010.143,175.015z"/>
	</g>
	<g>
		<path style="fill:#A07E6C;" d="M563.39,140.579c-39.517,9.8-9.351,99.041,22.127,83.642
			c38.959-19.058-10.271-97.731-22.127-82.142V140.579z"/>
		<path style="fill:#5F544B;" d="M558.051,165.352c3.792-5.331,3.216-8.308,8.931-2.314c3.953,4.146,5.349,11.396,8.87,15.72
			c-0.184-4.55,0.366-10.615,6.131-9.739c9.479,1.442,2.15,9.434,1.669,13.384c-0.767,6.292,8.653,21.577,14.133,25.001
			c3.375-4.239,7.254-21.685,7.457-27.875c0.402-12.281-6.202-30.364-12.727-40.658c-10.874-17.155-24.637-8.348-36.909,0.208
			c-6.578,4.587-19.533,8.984-22.897,16.838c-3.201,7.479,3.484,16.589,10.826,18.691
			C551.706,176.948,553.89,171.203,558.051,165.352z"/>
		<path style="fill:#333333;" d="M548.671,381.746c-4.15,0.027-8.577,0.177-11.962,2.1c-5.459,3.098-3.822,9.29-4.195,14.643
			c-1.249,17.802-4.407,35.41-3.781,53.233c0.054,1.525,0.251,3.226,1.679,4.237c0.892,0.633,2.107,0.866,3.269,1.078
			c31.311,5.643,63.493,8.169,95.576,7.503c1.141-0.024,2.338-0.065,3.323-0.525c1.679-0.786,2.21-2.493,2.588-4.021
			c4.93-19.917,5.55-39.91,7.097-60.179c0.199-2.605,0.315-5.332-1.033-7.708c-2.731-4.814-7.7-4.178-13.276-5.017
			c-8.281-1.247-20.937-2.275-29.302-3.087C582.076,382.394,565.369,381.638,548.671,381.746z"/>
		<path style="fill:#2E4AB2;" d="M501.161,301.856c0.073-0.529,0.22-1.111,0.756-1.429c0.321-0.189,10.73-0.252,11.122-0.308
			c3.398-0.492,6.797-0.984,10.194-1.475c1.033,1.479,1.122,3.241,1.281,4.93c0.766,8.134,3.723,16.134,8.618,23.304l0.341,8.185
			c0.987,0.73,0.76,2.104-0.155,2.891c-0.916,0.787-2.292,1.11-3.617,1.308c-1.544,0.228-3.116,0.331-4.684,0.305
			c-0.447-0.009-0.916-0.031-1.297-0.217c-0.401-0.194-0.641-0.539-0.859-0.868c-5.431-8.2-7.927-17.392-10.365-26.455
			C511.596,308.678,500.691,305.26,501.161,301.856z"/>
		<path style="fill:#A07E6C;" d="M516.624,325.386c-1.049-0.522-2.083-1.143-2.802-2.068c-1.333-1.709-1.331-4.07-1.268-6.237
			c0.024-0.868,0.175-1.927,0.983-2.243c1.093-0.43,2.281,0.957,3.383,0.549c-0.181-0.953-0.361-1.949-0.082-2.878
			c0.279-0.929,1.169-1.752,2.128-1.605c0.59,1.631,0.225,3.588,1.208,5.017c1.206,1.748,3.735,1.804,5.589,2.837
			c1.523,0.849,2.551,2.348,3.524,3.794c1.616,2.409,0.212,5.04-2.56,5.323C523.457,328.208,519.491,326.812,516.624,325.386z"/>
		<path style="fill:#A78E41;" d="M612.922,628.674c5.239-59.678,10.327-150.306,15.566-209.984
			c-15.184-1.612-31.454,19.984-46.707,20.336c-4.742,0.11-11.094-13.468-12.031-7.853c-0.644,3.844,5.278,22.402,5.874,26.431
			c4.068,27.589,8.791,55.437,10.37,83.41c0.46,8.112,0.233,16.244,0.398,24.366c0.283,13.797,1.707,27.539,3.506,41.213
			c0.704,5.354,4.252,15.318,2.91,20.44c-1.136,4.34-7.827,6.697-12.155,8.445c-1.443,0.586-2.964,1.151-4.031,2.288
			c-1.065,1.134-1.497,3.046-0.501,4.243c0.871,1.046,2.411,1.158,3.772,1.173c10.426,0.11,20.861-0.778,31.117-2.644
			c0.616-0.112,1.268-0.248,1.713-0.689c0.354-0.35,0.521-0.847,0.65-1.329c0.873-3.247,0.534-6.786-0.86-9.843
			C612.65,628.674,612.786,628.674,612.922,628.674z"/>
		<path style="fill:#441A19;" d="M582.644,238.976c1.422-0.486,2.828-1.028,4.224-1.564c7.019-2.692,14.039-5.386,21.058-8.078
			c1.041-0.4,2.156-0.806,3.247-0.577c0.843,0.177,1.56,0.711,2.232,1.253c13.107,10.573,16.672,27.766,20.269,43.403
			c12.721,55.284,16.726,112.399,11.839,168.817c-31.32,5.351-62.986,8.83-94.757,10.407c1.769-0.084,5.414-38.726,5.822-42.522
			c2.402-22.332,3.692-44.795,3.476-67.259c-0.216-22.551,0.977-45.006,2.612-67.507c0.663-9.1,1.415-18.195,2.251-27.284
			c0.326-3.556,10.608-7.24,13.205-7.799C579.657,239.935,581.16,239.484,582.644,238.976z"/>
		<path style="fill:#441A19;" d="M597.686,334.343c-2.35,8.022-5.816,16.988-13.652,19.9c-5.138,1.91-10.869,0.635-16.108-0.968
			c-10.48-3.206-20.574-7.67-29.996-13.267c-5.971-3.547-12.384-9.016-11.502-15.903c0.136-1.059,0.488-2.156,1.311-2.835
			c1.927-1.599,4.755-0.002,6.782,1.465c9.957,7.201,21.924,11.584,34.176,12.522c1.536,0.117,3.126,0.175,4.578-0.344
			c3.8-1.355,5.204-5.904,6.045-9.852c3.327-15.635,5.896-31.428,7.693-47.309c0.346-3.059,0.691-6.209,2.148-8.923
			c2.266-4.217,7.283-6.775,12.027-6.136c15.46,2.089,8.56,20.958,6.622,30.594C605.028,307.111,601.651,320.813,597.686,334.343z"
			/>
	</g>
	<path style="fill:#2E4AB2;" d="M682.323,307.152c-0.514-2.129,1.234-5.199,1.837-6.936c2.374-6.849,4.732-13.721,6.365-20.792
		c0.1-0.432,0.233-0.917,0.622-1.131c0.311-0.171,0.693-0.115,1.042-0.05c2.064,0.384,5.372,2.612,6.413,4.589
		c0.402,0.766,0.439,1.667,0.433,2.532c-0.024,3.106-0.49,6.21-1.381,9.187c-0.89,2.971-2.194,5.799-3.494,8.614
		c-1.179,2.554-2.357,5.107-3.535,7.661c-0.145,0.312-0.313,0.65-0.628,0.789c-1.127,0.498-2.923-1.734-3.924-2.157
		c-0.875-0.369-2-0.263-2.78-0.839C682.762,308.226,682.461,307.723,682.323,307.152z"/>
	<path style="fill:#E8DBCE;" d="M750.769,395.16c-0.058-0.182-0.228-0.301-0.373-0.425c-0.823-0.707-1.036-1.926-0.83-2.991
		c0.206-1.065,0.762-2.023,1.271-2.981c1.784-3.356,3.091-6.965,3.871-10.685c0.121-0.583,0.237-1.184,0.557-1.686
		c0.644-1.015,1.982-1.385,3.181-1.283c1.198,0.102,2.327,0.582,3.485,0.907c0.922,0.259,2.615,0.535,2.794,1.651
		c0.221,1.38-0.22,3.243-0.33,4.647c-0.256,3.255-0.625,6.503-1.105,9.733c-0.275,1.842-0.586,3.679-0.933,5.509
		c-0.241,1.271-0.503,2.549-1.009,3.739c-0.696,1.638-1.855,3.076-3.307,4.104c-0.814,0.577-1.744,1.034-2.738,1.121
		c-2.325,0.207-4.438-1.728-5.113-3.963c-0.674-2.235-0.208-4.655,0.52-6.872C750.765,395.515,750.823,395.331,750.769,395.16z"/>
	<path style="fill:#AFD9C4;" d="M771.997,365.533c1.368-7.425,3.185-14.676,5.322-21.917c1.669-5.653,3.797-11.16,5.591-16.775
		c3.456-10.817,5.654-21.99,7.827-33.136c2.72-13.951,5.397-28.497,1.657-42.21c-1.013-3.715-2.562-7.415-5.338-10.08
		c-2.777-2.667-6.994-4.093-10.6-2.744c-2.763,1.034-4.785,3.519-5.931,6.238c-1.147,2.719-1.535,5.686-1.912,8.612
		c-0.411,3.193-0.823,6.386-1.234,9.579c-0.683,5.307-1.367,10.619-1.67,15.96c-0.581,10.236,0.241,20.506-0.175,30.75
		c-0.814,20.094-6.354,39.649-11.31,59.14c-1.085,4.271-2.153,8.699-1.415,13.044c0.199,1.174,6.846,2.935,8.019,3.211
		c1.894,0.447,3.197,1.779,4.89,0.417c2.003-1.612,3.17-6.432,3.592-8.729C769.996,373.17,771.311,369.257,771.997,365.533z"/>
</g>
</svg>
